<?xml version="1.0" standalone="no"?>
<!DOCTYPE svg PUBLIC "-//W3C//DTD SVG 20010904//EN"
 "http://www.w3.org/TR/2001/REC-SVG-20010904/DTD/svg10.dtd">
<svg version="1.0" xmlns="http://www.w3.org/2000/svg"
 width="260.000000pt" height="260.000000pt" viewBox="0 0 260.000000 260.000000"
 preserveAspectRatio="xMidYMid meet">
<metadata>
Created by potrace 1.11, written by Peter Selinger 2001-2013
</metadata>
<g transform="translate(0.000000,260.000000) scale(0.100000,-0.100000)"
fill="#000000" stroke="none">
<path d="M466 2374 c-59 -19 -92 -38 -130 -79 -42 -44 -73 -96 -87 -146 -7
-24 -16 -48 -20 -54 -10 -14 -9 -1585 1 -1585 7 0 24 -57 21 -72 0 -5 3 -8 7
-8 14 0 33 -48 22 -55 -13 -8 -13 -25 1 -25 5 0 7 5 3 11 -4 7 -1 10 7 7 8 -3
13 -11 11 -17 -1 -6 5 -11 14 -11 9 0 12 -5 8 -12 -5 -8 -2 -9 10 -5 9 4 15 3
11 -2 -3 -5 1 -12 7 -14 10 -4 10 -6 0 -6 -7 -1 -10 -6 -7 -11 5 -8 11 -7 21
1 8 6 14 10 15 8 7 -34 6 -45 -2 -55 -7 -9 -3 -12 13 -11 13 0 31 -3 41 -8 10
-4 17 -4 15 1 -2 5 2 10 7 11 6 1 8 -6 7 -15 -3 -13 -1 -14 11 -3 11 9 17 9
22 0 6 -8 9 -8 15 1 6 9 10 6 15 -9 3 -11 11 -21 16 -21 6 0 7 4 4 10 -6 9 8
14 28 11 4 0 7 5 7 11 0 7 7 2 16 -10 8 -12 20 -22 26 -22 7 0 6 6 -2 15 -9
10 -9 15 -1 15 6 0 11 -5 11 -11 0 -5 6 -7 12 -3 7 4 10 4 6 -1 -4 -4 -3 -14
3 -21 7 -8 6 -14 -2 -20 -7 -4 -9 -3 -6 3 3 5 0 10 -7 10 -8 0 -12 -7 -9 -14
3 -8 12 -12 20 -9 7 3 16 -1 20 -9 4 -13 8 -13 21 -3 13 11 14 9 8 -12 -6 -24
-6 -24 9 2 8 15 26 30 40 34 13 3 29 12 36 20 6 8 16 11 21 7 6 -3 9 0 6 8 -3
8 -10 14 -15 14 -6 0 -14 3 -18 7 -15 14 27 1 46 -15 24 -21 33 -22 26 -3 -4
10 -1 13 9 9 7 -3 14 -9 14 -14 0 -5 7 -9 16 -9 14 0 14 3 4 15 -11 13 -10 14
4 9 12 -4 15 -13 10 -27 -6 -20 -4 -19 30 6 20 16 36 24 36 19 0 -6 -7 -12
-15 -16 -8 -3 -15 -11 -15 -17 0 -8 4 -8 15 1 8 7 15 9 15 4 0 -5 5 -2 10 6 7
11 10 11 10 2 0 -7 5 -10 10 -7 6 4 8 11 5 16 -4 5 -1 9 5 9 7 0 9 -8 5 -21
l-7 -22 31 23 c18 12 35 19 38 16 4 -3 3 -6 -1 -6 -5 0 2 -9 15 -21 13 -11 18
-17 10 -13 -8 4 -12 3 -8 -2 3 -6 -11 -10 -33 -9 -22 0 -36 4 -32 10 3 6 1 7
-3 3 -5 -5 -9 -19 -11 -33 -2 -20 0 -22 11 -12 7 6 11 15 8 19 -2 5 0 8 6 8 5
0 11 -6 14 -12 3 -10 7 -10 17 -1 9 8 19 9 32 2 10 -5 18 -6 18 -2 0 4 7 -2
15 -13 13 -16 14 -16 9 -1 -5 13 -2 16 10 11 9 -3 13 -11 9 -17 -4 -6 -1 -7 7
-2 10 6 9 11 -6 22 -10 8 -18 16 -16 18 1 3 2 6 1 8 -8 25 -5 35 9 30 10 -4
13 -2 8 5 -4 7 -2 12 3 12 17 0 13 -20 -5 -27 -9 -3 -12 -9 -7 -12 5 -3 16
-16 24 -28 10 -14 20 -19 28 -13 17 10 4 33 -14 26 -10 -3 -12 2 -8 17 3 12 5
30 5 40 -1 9 3 17 7 17 12 0 8 -43 -4 -52 -6 -5 -6 -8 2 -8 7 0 17 8 22 18 6
9 11 11 11 4 0 -6 3 -11 8 -11 23 4 30 -3 26 -26 -2 -14 0 -25 6 -25 6 0 9 -4
5 -9 -3 -5 0 -13 6 -17 7 -4 9 -3 6 3 -8 12 27 46 36 36 12 -11 8 -25 -5 -17
-7 4 -8 3 -4 -5 4 -6 12 -8 18 -5 8 5 9 1 5 -10 -4 -10 -3 -15 4 -11 5 4 7 16
4 28 -6 20 -5 21 8 5 8 -10 17 -15 20 -12 3 4 -4 15 -16 26 -24 21 -18 20 26
-1 15 -8 27 -18 27 -23 0 -4 5 -8 12 -8 9 0 9 3 0 12 -24 24 -11 31 16 7 15
-13 22 -18 15 -10 -12 14 -7 41 8 41 4 0 6 -7 3 -15 -4 -10 0 -15 13 -15 10 0
24 -5 30 -11 15 -15 28 8 14 25 -6 7 -7 17 -3 21 4 5 1 5 -7 0 -9 -5 -12 -4
-7 3 4 7 3 12 -2 12 -6 0 -13 8 -16 17 -5 13 1 10 19 -7 l27 -25 -5 25 c-2 14
-2 19 0 12 3 -7 9 -10 14 -7 5 3 6 0 3 -8 -9 -23 37 -13 58 13 18 23 55 39 42
19 -3 -5 -9 -7 -14 -4 -4 3 -10 -1 -13 -9 -3 -8 1 -17 9 -20 22 -8 24 -8 22 5
-2 6 4 14 12 16 11 3 11 2 3 -4 -9 -6 -7 -12 9 -22 18 -11 20 -11 15 3 -4 11
-2 13 10 9 9 -4 14 -2 10 3 -3 6 -1 16 5 24 8 12 9 12 4 -3 -7 -22 3 -22 21 1
13 15 14 15 9 0 -3 -9 2 -19 10 -22 24 -9 27 -7 14 9 -11 13 -10 14 4 9 12 -4
15 -13 10 -28 -6 -18 -5 -19 9 -7 9 7 14 18 11 23 -4 6 3 5 15 -2 12 -6 27 -9
34 -7 7 3 1 10 -13 15 -23 10 -22 11 13 7 20 -2 37 1 37 6 0 5 5 9 10 9 6 0 3
-11 -5 -24 -15 -23 -15 -25 2 -34 10 -6 17 -13 16 -16 -12 -27 17 -36 37 -11
7 8 17 12 22 9 6 -4 4 -10 -6 -16 -19 -10 -21 -28 -4 -28 6 0 8 3 5 7 -4 3 3
13 14 21 18 12 23 13 31 1 7 -11 8 -9 6 6 -2 12 4 21 15 23 9 2 17 -2 17 -8 0
-6 -4 -9 -8 -6 -4 2 -8 -7 -9 -22 0 -15 1 -19 4 -9 2 9 9 15 14 11 5 -3 9 -2
8 3 -3 20 2 34 11 28 5 -3 6 -13 3 -23 -3 -9 -3 -14 1 -10 4 3 9 14 10 24 2
10 8 20 14 22 7 2 10 -3 6 -12 -7 -19 16 -22 34 -4 7 7 12 8 12 2 0 -6 -5 -15
-12 -22 -7 -7 -8 -12 -2 -12 6 0 16 10 22 22 6 13 11 17 11 11 1 -7 6 -13 12
-13 8 0 8 5 -1 15 -7 8 -16 12 -21 9 -5 -3 -9 5 -9 17 0 12 -3 19 -7 15 -4 -4
-8 -15 -8 -23 0 -9 -7 -19 -15 -21 -13 -4 -13 -3 -2 10 10 13 10 18 1 24 -8 5
-9 3 -4 -6 5 -9 4 -11 -3 -6 -8 5 -9 13 -3 24 5 9 9 20 10 25 1 4 4 7 9 6 4 0
6 -7 4 -15 -2 -8 1 -14 5 -13 18 3 36 -1 30 -8 -4 -3 2 -13 14 -21 15 -10 24
-11 32 -3 6 6 15 11 21 11 6 0 5 -5 -2 -12 -7 -7 -12 -17 -12 -22 0 -6 5 -4
10 4 10 17 41 20 52 5 5 -6 8 -6 8 2 0 6 -5 15 -10 18 -6 4 -8 11 -5 16 7 11
26 12 24 2 -1 -5 -1 -15 0 -23 1 -13 3 -13 10 0 6 8 7 18 5 22 -3 4 2 8 10 8
9 0 15 -5 14 -12 -2 -7 7 -13 19 -14 12 -1 20 3 17 8 -3 5 6 7 20 4 14 -3 26
-1 26 3 0 11 -49 11 -56 0 -9 -15 -20 -10 -21 9 -1 15 5 18 27 17 16 -1 35 2
42 8 10 6 9 7 -4 4 -9 -3 -22 1 -29 9 -10 13 -8 14 20 9 22 -4 30 -2 26 5 -4
6 -13 9 -20 6 -7 -2 -18 1 -24 7 -8 8 -11 8 -11 -1 0 -7 -4 -12 -9 -12 -6 0
-9 9 -8 20 1 12 7 18 13 16 7 -3 15 2 18 10 3 8 13 14 21 14 9 0 13 -5 10 -10
-3 -6 1 -13 9 -16 9 -3 13 -11 9 -17 -4 -6 -1 -7 7 -2 10 6 10 10 -2 19 -8 6
-14 19 -12 29 1 9 -1 16 -4 14 -58 -30 -85 -38 -93 -28 -5 6 -6 9 -3 6 11 -7
65 25 59 35 -4 6 -8 10 -11 10 -3 0 -2 -5 2 -12 5 -8 2 -9 -10 -5 -10 4 -15 3
-11 -3 6 -10 -8 -14 -34 -10 -9 1 -12 -4 -7 -17 6 -17 6 -17 -8 0 -13 16 -12
21 5 38 10 10 19 25 18 32 0 6 -5 2 -11 -9 -5 -12 -20 -27 -32 -32 -12 -7 -15
-11 -7 -11 8 -1 0 -13 -20 -27 -19 -15 -26 -24 -16 -21 9 4 17 2 17 -3 0 -6
-7 -10 -15 -10 -8 0 -15 -4 -15 -10 0 -14 13 -13 29 3 11 10 12 9 6 -2 -6 -10
-4 -12 6 -6 8 5 11 5 7 0 -4 -4 -3 -14 3 -21 8 -10 6 -12 -10 -9 -11 2 -20 1
-20 -3 4 -25 -2 -35 -13 -24 -15 15 -29 16 -26 1 2 -6 -4 -14 -12 -16 -12 -4
-12 -3 -1 5 9 7 10 12 2 16 -6 4 -11 2 -11 -5 0 -7 -3 -9 -6 -6 -4 4 -1 14 7
23 11 13 11 15 -2 14 -26 -4 -37 0 -43 15 -3 8 -2 14 2 13 4 -1 18 4 31 11 13
7 21 9 17 3 -3 -5 1 -13 9 -16 12 -4 14 0 11 19 -3 14 -1 23 5 20 5 -4 9 -3 9
2 0 4 17 26 38 49 20 23 38 47 40 54 2 8 12 26 23 42 14 20 16 28 7 28 -10 0
-11 2 0 8 7 5 15 29 19 53 8 65 9 330 1 335 -4 3 -4 15 0 27 9 26 8 284 -1
293 -3 3 -3 16 1 28 9 25 8 283 -1 292 -3 3 -3 16 1 28 9 25 8 283 -1 292 -3
3 -2 16 2 28 4 11 6 68 5 126 -1 87 -6 116 -27 167 -42 102 -94 165 -171 206
-23 12 -43 21 -46 22 -3 0 -9 3 -15 7 -5 3 -365 6 -800 6 -677 1 -797 -1 -839
-14z m1839 -2074 c4 -6 11 -8 16 -5 5 4 9 1 9 -5 0 -6 5 -8 12 -4 7 4 8 3 4
-5 -4 -6 -13 -9 -19 -5 -7 3 -3 -1 7 -10 10 -8 24 -17 30 -19 6 -2 7 -8 3 -13
-4 -5 -12 -2 -17 6 -6 10 -10 11 -10 3 0 -7 -10 -17 -21 -24 -12 -6 -19 -7
-15 -1 3 5 -1 13 -9 16 -8 3 -14 9 -13 13 1 4 -3 18 -10 29 -6 12 -8 24 -5 28
10 9 31 7 38 -4z m-1877 -56 c-4 -3 -12 5 -18 18 -12 22 -12 22 6 6 10 -10 15
-20 12 -24z m1614 -12 c-9 -6 -6 -12 12 -20 14 -6 28 -7 31 -2 3 4 -3 11 -12
13 -14 4 -13 5 5 6 22 1 29 -9 15 -23 -5 -4 -8 -12 -8 -18 0 -17 -34 -18 -50
-1 -14 13 -19 10 -16 -9 2 -14 -37 -29 -44 -17 -5 7 -14 4 -26 -7 -16 -14 -22
-15 -32 -4 -10 10 -8 12 8 7 18 -6 18 -5 -2 9 -21 15 -22 51 -1 38 6 -4 5 -10
-3 -15 -10 -6 -10 -9 -2 -9 17 0 26 19 16 33 -4 7 2 1 15 -13 15 -16 20 -19
16 -7 -5 15 0 19 22 16 4 0 11 5 16 13 6 8 7 5 2 -12 -6 -22 -5 -23 9 -11 9 7
16 16 15 19 -1 16 3 22 15 22 9 0 9 -2 -1 -8z m-1347 -12 c3 -5 13 -6 23 -3
12 4 11 1 -5 -14 -23 -21 -22 -36 3 -26 8 3 11 9 8 14 -3 5 2 6 11 3 11 -4 14
-2 9 9 -3 8 -1 18 5 22 7 4 8 0 4 -11 -4 -12 -3 -15 5 -10 7 4 12 3 12 -2 0
-5 -13 -15 -30 -22 -16 -7 -30 -17 -30 -23 0 -6 -7 -2 -15 9 -14 18 -15 18 -8
0 4 -13 2 -17 -7 -14 -15 5 -23 58 -9 58 6 0 7 -4 4 -10 -3 -5 -2 -10 4 -10
19 0 21 19 4 29 -10 6 -13 11 -6 11 6 0 14 -4 18 -10z m250 0 c-3 -5 -12 -10
-18 -10 -7 0 -6 4 3 10 19 12 23 12 15 0z m100 0 c3 -5 1 -10 -4 -10 -6 0 -11
5 -11 10 0 6 2 10 4 10 3 0 8 -4 11 -10z m101 -2 c4 -7 3 -8 -4 -4 -7 4 -12 2
-12 -4 0 -6 -5 -8 -11 -4 -8 4 -7 9 2 15 18 11 17 11 25 -3z m313 -24 c-12
-16 -12 -17 4 -11 10 4 16 3 13 -1 -3 -5 6 -16 20 -26 31 -24 31 -37 0 -23
-13 7 -22 15 -20 19 7 11 -13 19 -30 12 -9 -3 -13 -11 -9 -18 4 -7 2 -7 -8 1
-12 10 -18 10 -27 1 -9 -9 -12 -9 -12 0 0 7 -6 11 -12 10 -7 -2 -12 3 -10 10
1 6 -2 12 -7 12 -12 0 -32 -25 -26 -34 3 -3 0 -2 -7 4 -8 7 -17 5 -30 -7 -10
-9 -18 -14 -19 -12 0 2 -2 12 -4 21 -2 10 1 20 6 24 5 3 9 -2 9 -11 0 -9 5
-13 10 -10 6 4 8 10 5 15 -8 12 13 50 26 50 6 0 3 -7 -5 -16 -20 -20 -20 -31
-1 -31 9 0 14 6 11 13 -3 7 2 10 15 7 11 -3 28 2 39 12 11 10 23 15 27 12 3
-4 1 -7 -6 -7 -7 0 -9 -5 -6 -10 4 -6 1 -9 -6 -8 -6 2 -13 -2 -16 -8 -9 -25
33 -8 50 20 13 21 21 26 29 18 8 -8 7 -16 -3 -28z m-79 22 c0 -2 -7 -7 -16
-10 -8 -3 -12 -2 -9 4 6 10 25 14 25 6z m200 -16 c0 -5 -4 -10 -10 -10 -5 0
-10 5 -10 10 0 6 5 10 10 10 6 0 10 -4 10 -10z m-446 -26 c9 -23 7 -28 -9 -30
-8 -1 -15 2 -15 7 0 5 5 9 11 9 6 0 3 7 -5 16 -20 19 -20 25 -2 18 8 -3 17
-12 20 -20z m153 20 c-3 -3 -12 -4 -19 -1 -8 3 -5 6 6 6 11 1 17 -2 13 -5z"/>
<path d="M2282 277 c7 -12 11 -26 9 -32 -1 -5 1 -7 5 -3 4 4 13 3 20 -3 9 -7
12 -6 10 3 -4 24 -24 51 -40 54 -13 2 -14 -1 -4 -19z m28 -12 c14 -19 14 -19
-2 -6 -10 7 -18 18 -18 24 0 6 1 8 3 6 1 -2 9 -13 17 -24z"/>
<path d="M1977 203 c-6 -13 -3 -33 6 -33 29 0 31 2 15 14 -10 7 -15 16 -11 19
3 4 4 7 0 7 -3 0 -8 -3 -10 -7z"/>
<path d="M2038 198 c14 -14 44 -20 36 -7 -3 5 -10 7 -15 4 -5 -4 -9 -1 -9 4 0
6 -5 11 -12 11 -9 0 -9 -3 0 -12z"/>
<path d="M1936 181 c-4 -5 -2 -12 3 -15 5 -4 12 -2 15 3 4 5 2 12 -3 15 -5 4
-12 2 -15 -3z"/>
<path d="M1436 191 c-15 -27 -15 -30 -1 -24 9 3 13 8 11 11 -3 3 -1 11 6 19 6
7 8 16 5 19 -3 3 -13 -8 -21 -25z"/>
<path d="M175 401 c-3 -5 -2 -12 3 -15 5 -3 9 1 9 9 0 17 -3 19 -12 6z"/>
<path d="M216 402 c-3 -5 1 -9 9 -9 8 0 12 4 9 9 -3 4 -7 8 -9 8 -2 0 -6 -4
-9 -8z"/>
<path d="M254 398 c4 -13 0 -18 -17 -19 -18 -1 -19 -2 -3 -6 24 -6 38 8 25 27
-9 13 -10 12 -5 -2z"/>
<path d="M2355 382 c3 -3 -3 -11 -13 -18 -9 -7 -15 -14 -12 -17 3 -2 15 6 28
18 17 16 19 22 8 22 -9 0 -14 -3 -11 -5z"/>
<path d="M159 368 c15 -21 31 -23 31 -6 0 6 -3 8 -7 5 -3 -4 -13 -1 -22 6 -14
11 -14 10 -2 -5z"/>
<path d="M2394 362 c4 -3 14 -7 22 -8 9 -1 13 0 10 4 -4 3 -14 7 -22 8 -9 1
-13 0 -10 -4z"/>
<path d="M217 344 c-9 -10 4 -34 19 -34 17 0 18 -12 2 -28 -17 -17 -33 -15
-19 2 9 11 8 15 -6 20 -11 4 -20 0 -27 -11 -5 -10 -9 -19 -7 -21 1 -2 -8 -12
-21 -23 l-23 -20 27 17 c15 9 26 20 23 24 -3 4 3 14 12 21 15 12 16 12 10 -4
-5 -13 0 -21 18 -29 26 -12 31 -23 16 -32 -5 -3 -11 1 -15 9 -3 8 -12 15 -21
15 -18 0 -20 -16 -3 -26 7 -4 8 -3 4 4 -11 19 5 14 20 -5 12 -16 15 -16 24 -3
5 8 10 13 11 10 0 -3 2 -14 3 -25 1 -11 8 -29 15 -40 13 -20 13 -20 -5 33 -3
9 4 5 16 -10 22 -29 40 -36 40 -17 0 5 -4 7 -10 4 -5 -3 -10 -3 -10 0 0 7 29
39 31 33 0 -2 3 -14 5 -28 4 -24 20 -40 39 -40 6 0 3 5 -5 10 -8 5 -13 10 -10
11 3 0 13 2 23 4 13 2 17 -1 13 -10 -3 -8 0 -17 6 -21 6 -4 8 -3 5 3 -4 6 0
16 7 22 9 8 17 8 20 2 3 -5 0 -11 -6 -14 -7 -2 -10 -8 -5 -12 9 -11 17 -3 22
24 2 12 0 19 -5 16 -5 -3 -11 -1 -15 5 -5 8 30 15 58 11 10 -2 9 17 -2 24 -5
3 -12 1 -16 -5 -4 -6 -19 -5 -42 5 -40 17 -55 19 -33 5 13 -8 13 -10 -1 -10
-19 0 -42 24 -32 34 4 3 7 15 8 26 1 14 -2 17 -10 10 -9 -7 -16 -6 -25 5 -7 8
-9 15 -4 15 5 0 -6 10 -24 21 -30 20 -34 20 -45 5 -11 -15 -14 -15 -32 -1 -20
16 -20 16 3 12 12 -3 22 -1 22 4 0 10 -33 12 -43 3z m87 -35 c3 1 6 -2 5 -6 0
-3 6 -10 15 -15 13 -7 14 -13 5 -30 -9 -16 -8 -19 3 -12 22 14 41 14 29 0 -8
-9 -4 -19 13 -35 15 -14 26 -19 31 -12 10 18 24 13 22 -8 -1 -20 -37 -26 -37
-7 0 5 -7 1 -15 -10 -11 -15 -15 -16 -16 -4 -1 8 -1 18 -1 22 1 3 -5 11 -12
17 -10 8 -17 7 -26 -4 -11 -13 -17 -11 -49 22 l-37 38 25 33 c15 21 27 29 31
22 4 -7 10 -11 14 -11z"/>
<path d="M261 288 c-9 -15 -10 -23 -2 -31 8 -8 11 -7 11 2 0 7 5 9 10 6 7 -5
8 -11 1 -19 -13 -16 20 -38 40 -26 16 11 52 -17 42 -33 -4 -6 -1 -7 6 -2 9 5
7 13 -8 29 -12 12 -18 27 -14 32 4 5 1 3 -7 -3 -8 -7 -17 -13 -21 -13 -12 0
-6 40 6 40 5 0 2 5 -8 11 -9 6 -15 14 -13 18 3 4 -3 7 -13 8 -9 1 -23 -8 -30
-19z m44 -37 c0 -16 -3 -27 -8 -24 -5 3 -6 11 -3 18 6 16 -17 38 -30 27 -4 -4
-2 1 5 11 18 23 35 8 36 -32z"/>
<path d="M71 327 c-8 -10 -7 -14 2 -14 8 0 14 6 14 14 0 7 -1 13 -2 13 -2 0
-8 -6 -14 -13z"/>
<path d="M135 329 c-4 -6 -5 -12 -2 -15 2 -3 7 2 10 11 7 17 1 20 -8 4z"/>
<path d="M2249 313 c-13 -16 -12 -17 4 -4 16 13 21 21 13 21 -2 0 -10 -8 -17
-17z"/>
<path d="M2473 315 c0 -8 4 -12 9 -9 5 3 6 10 3 15 -9 13 -12 11 -12 -6z"/>
<path d="M159 318 c-6 -21 -5 -37 2 -32 5 3 7 9 4 14 -3 4 1 11 7 13 10 4 10
6 1 6 -7 1 -13 0 -14 -1z"/>
<path d="M2390 290 c0 -5 5 -10 11 -10 5 0 7 5 4 10 -3 6 -8 10 -11 10 -2 0
-4 -4 -4 -10z"/>
<path d="M2493 275 c0 -8 4 -12 9 -9 4 3 8 9 8 15 0 5 -4 9 -8 9 -5 0 -9 -7
-9 -15z"/>
<path d="M101 277 c2 -1 11 -8 21 -15 12 -10 18 -10 24 -1 4 7 3 9 -4 5 -6 -3
-13 -2 -17 4 -3 5 -11 10 -17 10 -6 0 -9 -1 -7 -3z"/>
<path d="M2439 244 c-5 -15 -8 -29 -5 -31 2 -2 8 10 14 26 13 38 5 41 -9 5z"/>
<path d="M93 247 c0 -7 9 -14 20 -14 11 -1 18 -1 16 0 -2 2 -11 8 -20 15 -12
9 -16 9 -16 -1z"/>
<path d="M2165 251 c-3 -5 -1 -12 5 -16 5 -3 10 -1 10 6 0 8 4 8 15 -1 8 -7
12 -17 8 -24 -4 -6 1 -5 10 3 11 9 17 10 17 2 0 -6 5 -11 10 -11 6 0 9 6 8 13
-2 6 3 11 10 9 8 -1 11 2 7 8 -5 8 -11 8 -20 0 -10 -8 -14 -7 -18 2 -4 10 -6
10 -6 0 -1 -10 -5 -10 -17 2 -18 18 -30 20 -39 7z"/>
<path d="M53 225 c0 -8 4 -12 9 -9 5 3 6 10 3 15 -9 13 -12 11 -12 -6z"/>
<path d="M155 221 c-3 -5 0 -13 6 -17 8 -5 9 -3 4 6 -6 10 -4 12 9 7 10 -4 15
-3 11 3 -8 13 -22 13 -30 1z"/>
<path d="M2473 207 c-1 -11 -1 -18 0 -16 2 2 8 11 15 20 9 12 9 16 -1 16 -7 0
-14 -9 -14 -20z"/>
<path d="M2452 200 c0 -14 2 -19 5 -12 2 6 2 18 0 25 -3 6 -5 1 -5 -13z"/>
<path d="M200 202 c0 -5 7 -9 15 -9 8 0 12 4 9 9 -3 4 -9 8 -15 8 -5 0 -9 -4
-9 -8z"/>
<path d="M507 195 c-4 -8 -12 -14 -19 -13 -7 2 -13 -6 -14 -18 -1 -16 5 -20
25 -20 14 1 32 5 39 9 7 5 12 4 12 -3 0 -6 8 -10 18 -8 9 1 23 -1 31 -6 9 -6
12 -5 7 2 -3 5 -1 12 6 14 9 3 8 12 -6 32 -9 15 -20 25 -23 22 -4 -3 1 -14 10
-24 14 -15 15 -19 2 -19 -8 0 -11 5 -8 10 4 6 1 7 -7 2 -9 -6 -11 -4 -5 5 5 9
4 11 -3 6 -8 -5 -10 -1 -6 11 3 10 -1 7 -9 -6 l-14 -24 -15 22 c-13 18 -16 19
-21 6z m23 -39 c-8 -8 -13 -7 -20 4 -7 11 -10 11 -10 2 0 -7 -4 -10 -10 -7 -5
3 -10 11 -10 16 0 6 4 8 9 4 5 -3 13 -1 16 5 5 8 11 7 21 -1 11 -9 12 -15 4
-23z m45 4 c3 -5 2 -10 -4 -10 -5 0 -13 5 -16 10 -3 6 -2 10 4 10 5 0 13 -4
16 -10z"/>
<path d="M1869 198 c-1 -7 -1 -16 0 -20 1 -11 -7 -10 -31 3 -18 10 -25 8 -39
-10 -13 -16 -18 -18 -22 -7 -3 8 -15 19 -25 25 -16 8 -25 6 -45 -9 -17 -14
-28 -17 -32 -9 -4 5 -14 8 -22 5 -8 -3 -23 -2 -33 4 -13 7 -21 6 -30 -5 -6 -7
-18 -11 -26 -8 -8 3 -14 -1 -14 -8 0 -11 -3 -11 -10 1 -5 8 -10 11 -10 5 1 -5
7 -19 15 -29 8 -10 13 -22 10 -25 -2 -4 4 -7 14 -7 22 0 23 27 2 43 -14 10
-14 11 -1 10 24 -4 41 -18 34 -29 -4 -6 1 -6 14 1 17 9 21 8 25 -7 3 -14 4
-13 4 3 1 39 3 45 14 45 6 0 9 -6 6 -14 -3 -8 1 -22 9 -33 9 -10 13 -13 10 -7
-7 14 18 26 62 30 22 2 30 -1 25 -9 -4 -7 1 -6 10 2 17 13 24 4 10 -15 -5 -5
-1 -3 7 6 18 18 66 27 55 10 -5 -7 0 -7 14 2 23 14 26 24 11 33 -5 3 -7 12 -3
20 3 8 2 15 -1 15 -3 0 -7 -6 -7 -12z m-101 -27 c2 -1 0 -6 -3 -11 -5 -8 -11
-7 -21 1 -11 9 -14 8 -15 -2 0 -10 -2 -11 -6 -2 -3 10 -8 9 -20 -2 -8 -8 -19
-15 -25 -15 -6 0 0 8 12 18 19 15 54 21 78 13z m70 0 c11 -7 10 -9 -3 -14 -9
-4 -13 -3 -10 3 3 6 1 10 -4 10 -6 0 -11 -5 -11 -12 0 -6 -3 -9 -6 -5 -7 7 4
27 14 27 4 0 13 -4 20 -9z m-228 -13 c0 -10 3 -9 9 1 5 8 11 9 15 3 11 -18
-15 -25 -32 -8 -11 10 -12 16 -4 16 7 0 12 -6 12 -12z m-40 -23 c7 -9 8 -15 2
-15 -5 0 -12 7 -16 15 -3 8 -4 15 -2 15 2 0 9 -7 16 -15z"/>
<path d="M188 178 c5 -5 16 -8 23 -6 8 3 3 7 -10 11 -17 4 -21 3 -13 -5z"/>
<path d="M775 166 c-8 -11 -15 -17 -15 -13 0 4 -9 3 -21 -3 -11 -7 -18 -14
-16 -17 3 -3 12 -1 19 3 18 12 88 13 88 2 0 -5 5 -6 10 -3 16 10 12 -6 -7 -29
l-18 -21 24 20 24 20 -7 -20 c-5 -15 -4 -17 4 -9 8 8 9 18 2 31 -7 12 -7 25
-1 34 8 13 13 6 10 -14 -1 -4 5 -18 14 -30 12 -18 15 -19 15 -4 0 9 -4 17 -10
17 -5 0 -10 5 -10 10 0 7 7 7 20 0 11 -6 18 -15 15 -20 -3 -5 -1 -11 4 -14 10
-7 9 20 -2 30 -4 4 -7 12 -7 18 0 5 13 -3 29 -18 24 -23 29 -25 35 -11 3 9 4
21 1 25 -3 5 -1 11 5 15 5 3 10 -1 10 -9 0 -9 4 -16 8 -16 10 0 12 30 3 31 -3
0 -14 2 -23 4 -10 2 -21 -1 -24 -6 -4 -6 -11 -6 -19 1 -10 8 -15 8 -20 0 -5
-8 -11 -7 -22 1 -8 7 -35 13 -59 14 -35 2 -48 -2 -59 -19z m51 1 c4 -4 13 -2
21 5 11 8 12 7 7 -5 -4 -10 -15 -14 -37 -12 -41 4 -39 3 -33 14 7 10 31 9 42
-2z m129 -7 c7 6 11 3 12 -11 2 -25 -10 -24 -33 4 -10 12 -12 16 -4 10 8 -8
18 -9 25 -3z"/>
<path d="M1040 180 c-10 -7 -11 -10 -2 -11 6 -1 18 -2 25 -3 20 -4 30 6 16 15
-18 11 -21 11 -39 -1z"/>
<path d="M1215 172 c-6 -7 15 -32 26 -32 5 0 9 8 9 18 0 17 -23 26 -35 14z"/>
<path d="M2305 157 c-20 -20 -20 -20 1 -9 14 7 24 8 31 1 6 -6 10 -5 10 5 0 8
-4 13 -8 10 -4 -2 -9 0 -11 4 -1 5 -12 0 -23 -11z"/>
<path d="M2365 160 c-3 -6 1 -7 9 -4 18 7 21 14 7 14 -6 0 -13 -4 -16 -10z"/>
<path d="M2421 156 c-9 -11 -9 -16 1 -22 7 -4 10 -4 6 1 -4 4 -3 14 3 22 6 7
9 13 6 13 -2 0 -10 -6 -16 -14z"/>
<path d="M2240 156 c0 -2 7 -7 16 -10 8 -3 12 -2 9 4 -6 10 -25 14 -25 6z"/>
<path d="M175 140 c3 -5 8 -10 11 -10 2 0 4 5 4 10 0 6 -5 10 -11 10 -5 0 -7
-4 -4 -10z"/>
<path d="M227 139 c7 -7 15 -10 18 -7 3 3 -2 9 -12 12 -14 6 -15 5 -6 -5z"/>
<path d="M621 124 c0 -11 3 -14 6 -6 3 7 2 16 -1 19 -3 4 -6 -2 -5 -13z"/>
<path d="M646 123 c-6 -14 -5 -15 5 -6 7 7 10 15 7 18 -3 3 -9 -2 -12 -12z"/>
<path d="M1890 129 c0 -5 -4 -8 -9 -4 -5 3 -12 2 -15 -3 -2 -4 6 -8 19 -8 15
0 21 5 18 13 -6 16 -13 17 -13 2z"/>
<path d="M2086 123 c-6 -14 -5 -15 5 -6 7 7 10 15 7 18 -3 3 -9 -2 -12 -12z"/>
<path d="M2198 133 c7 -3 16 -2 19 1 4 3 -2 6 -13 5 -11 0 -14 -3 -6 -6z"/>
<path d="M570 119 c0 -5 5 -7 10 -4 6 3 10 8 10 11 0 2 -4 4 -10 4 -5 0 -10
-5 -10 -11z"/>
<path d="M770 120 c0 -5 5 -10 10 -10 6 0 10 5 10 10 0 6 -4 10 -10 10 -5 0
-10 -4 -10 -10z"/>
<path d="M1232 118 c2 -6 10 -13 16 -14 7 -1 8 0 2 3 -5 2 -8 9 -4 14 3 5 0 9
-6 9 -7 0 -10 -5 -8 -12z"/>
<path d="M1730 122 c0 -4 10 -9 22 -9 18 -2 20 0 8 7 -18 12 -30 13 -30 2z"/>
<path d="M1986 122 c-3 -5 1 -9 9 -9 8 0 12 4 9 9 -3 4 -7 8 -9 8 -2 0 -6 -4
-9 -8z"/>
<path d="M2316 118 c3 -5 10 -6 15 -3 13 9 11 12 -6 12 -8 0 -12 -4 -9 -9z"/>
<path d="M710 110 c0 -5 5 -10 11 -10 5 0 7 5 4 10 -3 6 -8 10 -11 10 -2 0 -4
-4 -4 -10z"/>
<path d="M1113 105 c0 -8 4 -15 9 -15 4 0 8 4 8 9 0 6 -4 12 -8 15 -5 3 -9 -1
-9 -9z"/>
<path d="M1076 95 c-9 -26 -7 -32 5 -12 6 10 9 21 6 23 -2 3 -7 -2 -11 -11z"/>
<path d="M1380 106 c0 -2 8 -10 18 -17 15 -13 16 -12 3 4 -13 16 -21 21 -21
13z"/>
<path d="M775 89 c-4 -6 -5 -12 -2 -15 2 -3 7 2 10 11 7 17 1 20 -8 4z"/>
<path d="M1155 91 c-3 -5 -2 -12 3 -15 5 -3 9 1 9 9 0 17 -3 19 -12 6z"/>
<path d="M1950 80 c0 -5 5 -10 11 -10 5 0 7 5 4 10 -3 6 -8 10 -11 10 -2 0 -4
-4 -4 -10z"/>
</g>
</svg>
